HIERARCHY
ROOT Hips
{
  OFFSET 1.44925e-005 102.336 -0.101585
  CHANNELS 6 Xposition Yposition Zposition Zrotation Xrotation Yrotation
  JOINT LeftUpLeg
  {
    OFFSET 8.9458 -8.66707 0.101652
    CHANNELS 3 Zrotation Xrotation Yrotation
    JOINT LeftLeg
    {
      OFFSET 0 -44.4227 1.3727
      CHANNELS 3 Zrotation Xrotation Yrotation
      JOINT LeftFoot
      {
        OFFSET -0.253549 -42.0924 -1.46059
        CHANNELS 3 Zrotation Xrotation Yrotation
        JOINT LeftToes
        {
          OFFSET -0.04 -4.41509 8.4991
          CHANNELS 3 Zrotation Xrotation Yrotation
          End Site
          {
            OFFSET 0.08 -0.047448 9.77979
          }
        }
      }
    }
  }
  JOINT Spine
  {
    OFFSET 0 11.8905 0
    CHANNELS 3 Zrotation Xrotation Yrotation
    JOINT Spine1
    {
      OFFSET 0 25.6574 0.127663
      CHANNELS 3 Zrotation Xrotation Yrotation
      JOINT RightShoulder
      {
        OFFSET -8.99 -0.362252 -0.22
        CHANNELS 3 Zrotation Xrotation Yrotation
        JOINT RightArm
        {
          OFFSET -10.2827 -0.00338 0.322123
          CHANNELS 3 Zrotation Xrotation Yrotation
          JOINT RightForeArm
          {
            OFFSET -26.364 0.099144 -1.42434
            CHANNELS 3 Zrotation Xrotation Yrotation
            JOINT RightHand
            {
              OFFSET -22.0324 0.085362 1.02216
              CHANNELS 3 Zrotation Xrotation Yrotation
              End Site
              {
                OFFSET -13.3284 -0.6 1.50291
              }
            }
          }
        }
      }
      JOINT LeftShoulder1
      {
        OFFSET 8.99 -0.362252 -0.22
        CHANNELS 3 Zrotation Xrotation Yrotation
        JOINT LeftArm
        {
          OFFSET 10.2827 -0.00337999 0.322123
          CHANNELS 3 Zrotation Xrotation Yrotation
          JOINT LeftForeArm
          {
            OFFSET 26.2597 0.099144 -1.42434
            CHANNELS 3 Zrotation Xrotation Yrotation
            JOINT LeftHand
            {
              OFFSET 22.0902 0.085362 1.02216
              CHANNELS 3 Zrotation Xrotation Yrotation
              End Site
              {
                OFFSET 13.419 -0.6 1.50291
              }
            }
          }
        }
      }
      JOINT Head
      {
        OFFSET 0 8.73416 0.011341
        CHANNELS 3 Zrotation Xrotation Yrotation
        End Site
        {
          OFFSET -0.29 12.7742 2.51395
        }
      }
    }
  }
  JOINT RightUpLeg
  {
    OFFSET -8.9458 -8.66707 0.101652
    CHANNELS 3 Zrotation Xrotation Yrotation
    JOINT RightLeg
    {
      OFFSET 0 -44.4227 1.3727
      CHANNELS 3 Zrotation Xrotation Yrotation
      JOINT RightFoot
      {
        OFFSET 0.253549 -42.0924 -1.46059
        CHANNELS 3 Zrotation Xrotation Yrotation
        JOINT RightToes
        {
          OFFSET 0.04 -4.41509 8.4991
          CHANNELS 3 Zrotation Xrotation Yrotation
          End Site
          {
            OFFSET -0.08 -0.137448 9.77979
          }
        }
      }
    }
  }
}
MOTION
Frames:	7
Frame Time:	0.0333333
190.156 103.118 7.50643 -2.84518 -0.208725 -93.9979 -1.62988 -0.878806 1.5975 -0.501056 8.32184 20.6989 -1.26173 -9.58535 0.0162825 -1.35229e-009 8.75221e-006 -1.46697e-008 0.540367 9.7662 -0.21541 -1.87883 -2.69201 0.142508 36.9619 1.76878 0.0930106 41.4466 -9.06594 1.80994 4.67937 31.4538 14.9413 -11.3331 9.24304 1.79837 -44.647 3.63787 -3.59399 -27.0408 -11.3776 3.49508 -2.36309 31.7277 -17.9167 5.82328 9.61819 -0.917488 -1.67858 -8.26626 -4.26495 -1.62984 -0.592436 -3.46629 -1.19757 10.9821 -5.26114 4.16113 -11.8687 -0.0363028 0.0462048 0.000530889 0.662642 
190.145 103.118 7.49444 -2.85978 -0.215348 -94.0282 -1.62345 -0.831069 1.61848 -0.519805 8.2789 20.7155 -1.26173 -9.59481 0.016283 -1.35229e-009 8.75221e-006 -1.46697e-008 0.473652 9.73118 -0.21405 -1.82404 -2.63387 0.13273 36.9808 1.76878 0.0930106 41.4424 -9.18091 1.87553 4.71492 31.622 14.8488 -11.3204 9.24461 1.79074 -44.6307 3.63787 -3.59399 -27.0773 -11.0926 3.56161 -2.237 31.4288 -18.1512 5.82328 9.61819 -0.917488 -1.68551 -8.36346 -4.16804 -1.60777 -0.582183 -3.42459 -1.24419 11.004 -5.27102 4.21339 -11.8822 -0.0363046 0.0462048 0.000530889 0.662642 
190.124 103.118 7.47476 -2.87939 -0.218561 -94.0486 -1.6059 -0.778436 1.65179 -0.540832 8.24843 20.702 -1.26172 -9.60608 0.0162835 -1.35229e-009 8.75221e-006 -1.46697e-008 0.390937 9.68902 -0.236893 -1.76738 -2.5805 0.0962538 37.0712 1.76878 0.0930106 41.3738 -9.12405 1.94478 4.75239 31.6591 14.7992 -11.2808 9.25155 1.73574 -44.5822 3.63787 -3.59438 -27.1418 -10.6818 3.68054 -2.11171 30.897 -18.4562 5.82328 9.61819 -0.917488 -1.67071 -8.52285 -3.99915 -1.58377 -0.549693 -3.38818 -1.27945 11.0054 -5.27555 4.25604 -11.8972 -0.0363066 0.0462048 0.000530889 0.662642 
190.102 103.118 7.46631 -2.90344 -0.222153 -94.0519 -1.60868 -0.732229 1.65819 -0.536651 8.23778 20.6912 -1.26172 -9.61137 0.0162838 -1.35229e-009 8.75221e-006 -1.46697e-008 0.356552 9.68714 -0.263865 -1.74514 -2.55914 0.0629278 37.1585 1.76878 0.0930106 41.2877 -8.83978 1.95644 4.70994 31.4815 14.9125 -11.1926 9.26009 1.70106 -44.56 3.63976 -3.59798 -27.1814 -10.4029 3.75005 -2.02154 30.5267 -18.6747 5.82328 9.61819 -0.917488 -1.76158 -8.72828 -3.92681 -1.58766 -0.506215 -3.39555 -1.27849 10.9983 -5.25615 4.24821 -11.9158 -0.0363091 0.0462048 0.000530889 0.662642 
190.082 103.118 7.46803 -2.92544 -0.23133 -94.0671 -1.63343 -0.684039 1.6399 -0.518364 8.21461 20.7236 -1.26172 -9.61107 0.0162838 -1.35229e-009 8.75221e-006 -1.46697e-008 0.330902 9.7135 -0.258951 -1.69086 -2.53543 0.0579889 37.1184 1.76878 0.0928544 41.3052 -8.65519 1.95511 4.60739 31.3587 15.0739 -11.0272 9.26972 1.70745 -44.6234 3.65018 -3.60998 -27.1645 -10.2276 3.74678 -1.91116 30.3778 -18.8516 5.82328 9.61819 -0.917488 -1.83415 -8.79538 -3.86169 -1.61005 -0.483476 -3.42369 -1.26894 11.0229 -5.21422 4.23759 -11.9395 -0.0363123 0.0462048 0.000530889 0.662642 
190.069 103.118 7.45847 -2.91987 -0.225131 -94.0819 -1.62249 -0.675927 1.64695 -0.517256 8.2068 20.7356 -1.26276 -9.61718 0.0162841 -1.35229e-009 8.75221e-006 -1.46697e-008 0.259259 9.72439 -0.232588 -1.55097 -2.51755 0.0583064 36.9498 1.76798 0.094824 41.4503 -8.75159 2.00098 4.57223 31.3671 15.1037 -10.8828 9.28185 1.66974 -44.7363 3.66811 -3.62759 -27.1076 -10.1104 3.73081 -1.88739 30.2161 -18.9326 5.82328 9.61819 -0.917488 -1.60606 -8.52759 -3.60078 -1.60025 -0.48899 -3.42179 -1.26374 11.0388 -5.20621 4.25466 -11.9426 -0.0363127 0.0462048 0.000530889 0.662642 
190.064 103.118 7.4289 -2.87214 -0.18762 -94.0628 -1.54509 -0.747885 1.70067 -0.538472 8.26094 20.6625 -1.26828 -9.64095 0.0162852 -1.35229e-009 8.75221e-006 -1.46697e-008 0.165349 9.69599 -0.220379 -1.38031 -2.53951 0.0361872 36.7667 1.76514 0.105577 41.6205 -8.96072 2.08715 4.66072 31.3734 14.983 -10.9868 9.28539 1.55559 -44.8174 3.68065 -3.63961 -27.0382 -10.1486 3.73053 -2.08483 29.9808 -18.7749 5.82328 9.61819 -0.917488 -1.26218 -8.16921 -3.31928 -1.53322 -0.504285 -3.36967 -1.2565 10.9833 -5.27919 4.2556 -11.9129 -0.0363087 0.0462048 0.000530889 0.662642 
